<svg width="58" height="58" viewBox="0 0 58 58" fill="none" xmlns="http://www.w3.org/2000/svg">
<rect width="58" height="58" rx="8" fill="#E0334C"/>
<g clip-path="url(#clip0_544_7730)">
<path d="M17.27 33.55C16.8366 33.549 16.4127 33.6766 16.0519 33.9167C15.6911 34.1567 15.4096 34.4984 15.2431 34.8985C15.0766 35.2985 15.0325 35.739 15.1164 36.1642C15.2004 36.5893 15.4085 36.98 15.7146 37.2868C16.0207 37.5936 16.4109 37.8026 16.8359 37.8876C17.2608 37.9725 17.7014 37.9294 18.1019 37.7638C18.5023 37.5982 18.8447 37.3175 19.0855 36.9572C19.3264 36.597 19.455 36.1734 19.455 35.74C19.4536 35.1605 19.2232 34.6049 18.8138 34.1947C18.4045 33.7844 17.8495 33.5526 17.27 33.55ZM17.27 36.44C17.1315 36.44 16.9962 36.399 16.8811 36.322C16.7659 36.2451 16.6762 36.1358 16.6232 36.0079C16.5703 35.88 16.5564 35.7392 16.5834 35.6034C16.6104 35.4677 16.6771 35.3429 16.775 35.245C16.8729 35.1471 16.9976 35.0805 17.1334 35.0535C17.2692 35.0264 17.4099 35.0403 17.5378 35.0933C17.6657 35.1463 17.7751 35.236 17.852 35.3511C17.9289 35.4662 17.97 35.6016 17.97 35.74C17.9686 35.9253 17.8945 36.1025 17.7635 36.2335C17.6325 36.3645 17.4552 36.4387 17.27 36.44ZM33.9 33.5C33.4537 33.5 33.0176 33.6324 32.6466 33.8804C32.2757 34.1284 31.9867 34.4809 31.8161 34.8932C31.6456 35.3056 31.6012 35.7592 31.6887 36.1968C31.7761 36.6343 31.9913 37.0361 32.3072 37.3513C32.6231 37.6665 33.0253 37.8808 33.4631 37.9673C33.9009 38.0537 34.3544 38.0084 34.7664 37.8369C35.1783 37.6655 35.5302 37.3757 35.7773 37.0042C36.0245 36.6327 36.1559 36.1962 36.155 35.75C36.155 35.4541 36.0966 35.1611 35.9832 34.8878C35.8698 34.6145 35.7036 34.3662 35.4942 34.1572C35.2847 33.9482 35.0361 33.7826 34.7625 33.6698C34.489 33.5571 34.1958 33.4993 33.9 33.5ZM33.9 36.47C33.7575 36.47 33.6183 36.4278 33.4999 36.3487C33.3815 36.2695 33.2893 36.1571 33.2348 36.0255C33.1803 35.894 33.166 35.7492 33.1938 35.6095C33.2216 35.4699 33.2901 35.3416 33.3908 35.2409C33.4915 35.1402 33.6198 35.0716 33.7595 35.0438C33.8992 35.0161 34.0439 35.0303 34.1755 35.0848C34.307 35.1393 34.4195 35.2316 34.4986 35.35C34.5777 35.4684 34.62 35.6076 34.62 35.75C34.6173 35.9392 34.5403 36.1198 34.4056 36.2527C34.2708 36.3855 34.0892 36.46 33.9 36.46V36.47Z" fill="white"/>
<path d="M43.57 32.2002H23.13V23.4652C23.13 23.3755 23.1122 23.2866 23.0777 23.2038C23.0433 23.121 22.9927 23.0458 22.9291 22.9826C22.8654 22.9194 22.7898 22.8694 22.7067 22.8355C22.6237 22.8016 22.5347 22.7845 22.445 22.7852H16.735L13.94 26.0002V30.0902C13.9409 30.1547 13.9283 30.2187 13.9031 30.2782C13.8779 30.3376 13.8405 30.3911 13.7935 30.4353C13.7465 30.4795 13.6908 30.5135 13.6299 30.535C13.569 30.5564 13.5043 30.565 13.44 30.5602C13.3144 30.5703 13.1973 30.6273 13.112 30.72C13.0267 30.8127 12.9796 30.9342 12.98 31.0602V34.2652C12.98 34.5463 13.0917 34.8159 13.2904 35.0147C13.4892 35.2135 13.7589 35.3252 14.04 35.3252H14.62C14.712 34.6886 15.0302 34.1065 15.5165 33.6855C16.0027 33.2645 16.6243 33.0328 17.2675 33.0328C17.9107 33.0328 18.5323 33.2645 19.0185 33.6855C19.5047 34.1065 19.823 34.6886 19.915 35.3252H31.18C31.2771 34.6732 31.6051 34.0778 32.1044 33.6474C32.6036 33.217 33.2408 32.9803 33.9 32.9803C34.5591 32.9803 35.1964 33.217 35.6956 33.6474C36.1948 34.0778 36.5229 34.6732 36.62 35.3252H37.33C37.4233 34.6709 37.7495 34.0723 38.2487 33.6392C38.7479 33.2062 39.3866 32.9678 40.0475 32.9678C40.7084 32.9678 41.347 33.2062 41.8462 33.6392C42.3455 34.0723 42.6717 34.6709 42.765 35.3252H43.57C43.7194 35.3239 43.8624 35.2639 43.9681 35.1582C44.0737 35.0526 44.1337 34.9096 44.135 34.7602V32.7602C44.1337 32.6112 44.0736 32.4688 43.9677 32.3639C43.8619 32.259 43.719 32.2002 43.57 32.2002ZM21.22 28.7902H15.72V26.4702L17.41 24.5852H21.235L21.22 28.7902Z" fill="white"/>
<path d="M40.0449 33.5C39.5999 33.5 39.1649 33.632 38.7949 33.8792C38.4249 34.1264 38.1365 34.4778 37.9662 34.889C37.7959 35.3001 37.7513 35.7525 37.8382 36.189C37.925 36.6254 38.1393 37.0263 38.4539 37.341C38.7686 37.6557 39.1695 37.8699 39.606 37.9568C40.0424 38.0436 40.4948 37.999 40.906 37.8287C41.3171 37.6584 41.6685 37.37 41.9157 37C42.163 36.63 42.2949 36.195 42.2949 35.75C42.2936 35.1537 42.0561 34.5821 41.6345 34.1605C41.2128 33.7388 40.6413 33.5013 40.0449 33.5ZM40.0449 36.47C39.9027 36.469 39.764 36.4259 39.6463 36.3462C39.5285 36.2665 39.437 36.1537 39.3833 36.0221C39.3296 35.8904 39.316 35.7458 39.3444 35.6065C39.3727 35.4672 39.4417 35.3393 39.5426 35.2391C39.6435 35.1389 39.7718 35.0709 39.9113 35.0435C40.0508 35.0161 40.1953 35.0307 40.3266 35.0853C40.4579 35.1399 40.57 35.2322 40.6489 35.3505C40.7278 35.4688 40.7699 35.6078 40.7699 35.75C40.7693 35.8443 40.75 35.9376 40.7131 36.0244C40.6763 36.1112 40.6226 36.1899 40.5552 36.2559C40.4878 36.3219 40.408 36.3739 40.3205 36.4089C40.2329 36.444 40.1392 36.4613 40.0449 36.46V36.47Z" fill="white"/>
<path d="M38.725 21.4951H36.53V22.1751H38.725V21.4951Z" fill="white"/>
<path d="M38.725 23.5049H36.53V24.5199H38.725V23.5049Z" fill="white"/>
<path d="M38.725 25.8496H36.53V26.8696H38.725V25.8496Z" fill="white"/>
<path d="M38.725 28.2002H36.53V29.2152H38.725V28.2002Z" fill="white"/>
<path d="M38.725 30.5449H36.53V31.5699H38.725V30.5449Z" fill="white"/>
<path d="M45 26.5299C45.0002 25.2104 44.4819 23.9438 43.5569 23.0029C42.6319 22.062 41.3743 21.5222 40.055 21.4999V31.5649C41.3751 31.5426 42.6336 31.0021 43.5587 30.0601C44.4838 29.1182 45.0015 27.8502 45 26.5299ZM36.12 30.1349H39.12V31.4149H39.62V20.9599C39.6275 20.9229 39.6266 20.8847 39.6175 20.848C39.6084 20.8114 39.5912 20.7773 39.5673 20.7481C39.5434 20.7189 39.5133 20.6953 39.4792 20.6792C39.445 20.663 39.4078 20.6546 39.37 20.6546C39.3323 20.6546 39.295 20.663 39.2609 20.6792C39.2268 20.6953 39.1967 20.7189 39.1727 20.7481C39.1488 20.7773 39.1317 20.8114 39.1226 20.848C39.1135 20.8847 39.1126 20.9229 39.12 20.9599V22.5849H36.12V20.9599C36.1045 20.9056 36.0717 20.8578 36.0266 20.8237C35.9815 20.7897 35.9265 20.7713 35.87 20.7713C35.8135 20.7713 35.7585 20.7897 35.7134 20.8237C35.6683 20.8578 35.6355 20.9056 35.62 20.9599V31.4149H36.12V30.1349ZM36.12 23.0949H39.12V24.9299H36.12V23.0949ZM36.12 25.4399H39.12V27.2799H36.12V25.4399ZM36.12 27.7899H39.12V29.6199H36.12V27.7899ZM28.68 31.5649H35.18V21.4999H32.315V20.8999H32.525C32.5546 20.8999 32.5838 20.8941 32.6111 20.8828C32.6384 20.8714 32.6632 20.8549 32.6841 20.834C32.705 20.8131 32.7216 20.7883 32.7329 20.761C32.7442 20.7337 32.75 20.7044 32.75 20.6749V20.2299C32.75 20.2003 32.7442 20.1711 32.7329 20.1438C32.7216 20.1165 32.705 20.0917 32.6841 20.0708C32.6632 20.0499 32.6384 20.0333 32.6111 20.022C32.5838 20.0107 32.5546 20.0049 32.525 20.0049H29.15C29.0907 20.0062 29.0343 20.0303 28.9923 20.0722C28.9504 20.1141 28.9263 20.1706 28.925 20.2299V20.6749C28.925 20.7346 28.9487 20.7918 28.9909 20.834C29.0331 20.8762 29.0903 20.8999 29.15 20.8999H29.36V21.4999H28.68C27.3447 21.4999 26.064 22.0304 25.1197 22.9746C24.1755 23.9188 23.645 25.1995 23.645 26.5349C23.645 27.8702 24.1755 29.1509 25.1197 30.0952C26.064 31.0394 27.3447 31.5699 28.68 31.5699V31.5649Z" fill="white"/>
</g>
<defs>
<clipPath id="clip0_544_7730">
<rect width="32" height="32" fill="white" transform="translate(13 13)"/>
</clipPath>
</defs>
</svg>
