<svg width="58" height="58" viewBox="0 0 58 58" fill="none" xmlns="http://www.w3.org/2000/svg">
<rect width="58" height="58" rx="8" fill="#E0334C"/>
<g clip-path="url(#clip0_566_514)">
<path d="M39.3599 22.64L39.3799 22.62L34.4133 17.6667L32.9999 19.08L35.8133 21.8933C35.1829 22.1329 34.6402 22.5581 34.2569 23.1129C33.8735 23.6676 33.6677 24.3257 33.6666 25C33.6666 26.84 35.1599 28.3333 36.9999 28.3333C37.4733 28.3333 37.9266 28.2333 38.3333 28.0533V37.6667C38.3333 38.4 37.7333 39 36.9999 39C36.2666 39 35.6666 38.4 35.6666 37.6667V31.6667C35.6666 30.1933 34.4733 29 32.9999 29H31.6666V19.6667C31.6666 18.1933 30.4733 17 28.9999 17H20.9999C19.5266 17 18.3333 18.1933 18.3333 19.6667V41H31.6666V31H33.6666V37.6667C33.6666 39.5067 35.1599 41 36.9999 41C38.8399 41 40.3333 39.5067 40.3333 37.6667V25C40.3333 24.08 39.9599 23.2467 39.3599 22.64ZM28.9999 26.3333H20.9999V19.6667H28.9999V26.3333ZM36.9999 26.3333C36.2666 26.3333 35.6666 25.7333 35.6666 25C35.6666 24.2667 36.2666 23.6667 36.9999 23.6667C37.7333 23.6667 38.3333 24.2667 38.3333 25C38.3333 25.7333 37.7333 26.3333 36.9999 26.3333Z" fill="white"/>
</g>
<defs>
<clipPath id="clip0_566_514">
<rect width="32" height="32" fill="white" transform="translate(13 13)"/>
</clipPath>
</defs>
</svg>
