<svg width="19" height="20" viewBox="0 0 19 20" fill="none" xmlns="http://www.w3.org/2000/svg">
<g id="Social Media Icon Square/Instagram">
<path id="Instagram" fill-rule="evenodd" clip-rule="evenodd" d="M0.849609 10.3809C0.849609 6.78572 0.849609 4.98815 1.7063 3.69341C2.08886 3.11525 2.584 2.62011 3.16216 2.23755C4.4569 1.38086 6.25447 1.38086 9.84961 1.38086C13.4447 1.38086 15.2423 1.38086 16.5371 2.23755C17.1152 2.62011 17.6104 3.11525 17.9929 3.69341C18.8496 4.98815 18.8496 6.78572 18.8496 10.3809C18.8496 13.976 18.8496 15.7736 17.9929 17.0683C17.6104 17.6465 17.1152 18.1416 16.5371 18.5242C15.2423 19.3809 13.4447 19.3809 9.84961 19.3809C6.25447 19.3809 4.4569 19.3809 3.16216 18.5242C2.584 18.1416 2.08886 17.6465 1.7063 17.0683C0.849609 15.7736 0.849609 13.976 0.849609 10.3809ZM14.5089 10.3811C14.5089 12.9544 12.4228 15.0405 9.84945 15.0405C7.27613 15.0405 5.19004 12.9544 5.19004 10.3811C5.19004 7.80777 7.27613 5.72168 9.84945 5.72168C12.4228 5.72168 14.5089 7.80777 14.5089 10.3811ZM9.84945 13.4641C11.5521 13.4641 12.9325 12.0838 12.9325 10.3811C12.9325 8.67839 11.5521 7.29808 9.84945 7.29808C8.14675 7.29808 6.76645 8.67839 6.76645 10.3811C6.76645 12.0838 8.14675 13.4641 9.84945 13.4641ZM14.6929 6.58241C15.2975 6.58241 15.7877 6.09224 15.7877 5.48758C15.7877 4.88293 15.2975 4.39276 14.6929 4.39276C14.0882 4.39276 13.5981 4.88293 13.5981 5.48758C13.5981 6.09224 14.0882 6.58241 14.6929 6.58241Z" fill="#E0334C"/>
</g>
</svg>
