<svg width="19" height="19" viewBox="0 0 19 19" fill="none" xmlns="http://www.w3.org/2000/svg">
<g id="Social Media Icon Square/LinkedIn">
<g id="Group 73">
<path id="LinkedIn" d="M0.849609 3.29993C0.849609 2.72272 1.05232 2.24653 1.45772 1.87136C1.86312 1.49618 2.39016 1.30859 3.0388 1.30859C3.67587 1.30859 4.1913 1.49329 4.58513 1.86271C4.99053 2.24366 5.19324 2.74004 5.19324 3.35188C5.19324 3.906 4.99633 4.36774 4.6025 4.73716C4.19711 5.11812 3.66428 5.30859 3.00405 5.30859H2.98668C2.3496 5.30859 1.83417 5.11812 1.44034 4.73716C1.04651 4.35621 0.849609 3.87713 0.849609 3.29993ZM1.07548 18.4514V6.88435H4.93262V18.4514H1.07548ZM7.06969 18.4514H10.9268V11.9926C10.9268 11.5885 10.9732 11.2768 11.0658 11.0575C11.228 10.665 11.4741 10.3331 11.8042 10.0618C12.1344 9.79055 12.5484 9.65491 13.0465 9.65491C14.3438 9.65491 14.9925 10.5265 14.9925 12.2696V18.4514H18.8496V11.8194C18.8496 10.1109 18.4442 8.81508 17.6334 7.93197C16.8226 7.04885 15.7512 6.60729 14.4191 6.60729C12.9249 6.60729 11.7608 7.24799 10.9268 8.52937V8.564H10.9095L10.9268 8.52937V6.88435H7.06969C7.09285 7.25375 7.10444 8.40237 7.10444 10.3302C7.10444 12.2581 7.09285 14.9651 7.06969 18.4514Z" fill="#E0334C"/>
</g>
</g>
</svg>
