<svg width="20" height="21" viewBox="0 0 20 21" fill="none" xmlns="http://www.w3.org/2000/svg">
<path d="M16.8609 9.6421C16.8609 15.0209 11.3517 18.3347 10.2068 18.9659C10.1434 19.0009 10.0722 19.0192 9.99974 19.0192C9.9273 19.0192 9.85605 19.0009 9.79263 18.9659C8.64688 18.3347 3.1394 15.0209 3.1394 9.6421C3.1394 5.35412 5.71219 2.35254 10.0002 2.35254C14.2881 2.35254 16.8609 5.35412 16.8609 9.6421Z" stroke="black" stroke-width="1.4" stroke-linecap="round" stroke-linejoin="round"/>
<path d="M6.56982 9.21358C6.56982 10.1234 6.93124 10.9959 7.57456 11.6392C8.21788 12.2825 9.09041 12.644 10.0002 12.644C10.91 12.644 11.7825 12.2825 12.4258 11.6392C13.0692 10.9959 13.4306 10.1234 13.4306 9.21358C13.4306 8.30379 13.0692 7.43126 12.4258 6.78794C11.7825 6.14462 10.91 5.7832 10.0002 5.7832C9.09041 5.7832 8.21788 6.14462 7.57456 6.78794C6.93124 7.43126 6.56982 8.30379 6.56982 9.21358V9.21358Z" stroke="black" stroke-width="1.4" stroke-linecap="round" stroke-linejoin="round"/>
</svg>
