<svg width="20" height="21" viewBox="0 0 20 21" fill="none" xmlns="http://www.w3.org/2000/svg">
<path d="M18.3334 6.93457V15.2679C18.3334 15.8204 18.1139 16.3503 17.7232 16.741C17.3325 17.1317 16.8026 17.3512 16.2501 17.3512H3.75008C3.19755 17.3512 2.66764 17.1317 2.27694 16.741C1.88624 16.3503 1.66675 15.8204 1.66675 15.2679V6.93457" stroke="black" stroke-width="1.4" stroke-linecap="round" stroke-linejoin="round"/>
<path d="M18.3334 6.9349C18.3334 6.38236 18.1139 5.85246 17.7232 5.46176C17.3325 5.07106 16.8026 4.85156 16.2501 4.85156H3.75008C3.19755 4.85156 2.66764 5.07106 2.27694 5.46176C1.88624 5.85246 1.66675 6.38236 1.66675 6.9349L8.89591 11.4488C9.22702 11.6557 9.60962 11.7655 10.0001 11.7655C10.3905 11.7655 10.7731 11.6557 11.1042 11.4488L18.3334 6.9349Z" stroke="black" stroke-width="1.4" stroke-linecap="round" stroke-linejoin="round"/>
</svg>
