<svg width="58" height="58" viewBox="0 0 58 58" fill="none" xmlns="http://www.w3.org/2000/svg">
<rect width="58" height="58" rx="8" fill="#E0334C"/>
<path d="M34.0432 26.4529C34.0432 26.2831 33.9758 26.1204 33.8557 26.0003C33.7357 25.8803 33.5729 25.8129 33.4032 25.8129H17.48C17.3103 25.8129 17.1475 25.8803 17.0274 26.0003C16.9074 26.1204 16.84 26.2831 16.84 26.4529V35.6689C16.8383 36.0532 16.9126 36.4341 17.0585 36.7896C17.2044 37.1452 17.4191 37.4684 17.6902 37.7408C17.9614 38.0131 18.2837 38.2292 18.6386 38.3767C18.9935 38.5242 19.3741 38.6001 19.7584 38.6001H35.2336C34.474 37.818 34.0473 36.7719 34.0432 35.6817V26.4529ZM18.4784 29.0129C18.4784 28.8431 18.5458 28.6804 18.6658 28.5603C18.7859 28.4403 18.9487 28.3729 19.1184 28.3729H25.16C25.3297 28.3729 25.4925 28.4403 25.6125 28.5603C25.7326 28.6804 25.8 28.8431 25.8 29.0129V34.1329C25.8 34.3026 25.7326 34.4654 25.6125 34.5854C25.4925 34.7054 25.3297 34.7729 25.16 34.7729H19.1184C18.9487 34.7729 18.7859 34.7054 18.6658 34.5854C18.5458 34.4654 18.4784 34.3026 18.4784 34.1329V29.0129ZM31.56 37.3201H19.1184C18.9487 37.3201 18.7859 37.2526 18.6658 37.1326C18.5458 37.0126 18.4784 36.8498 18.4784 36.6801C18.4784 36.5103 18.5458 36.3476 18.6658 36.2275C18.7859 36.1075 18.9487 36.0401 19.1184 36.0401H31.56C31.7297 36.0401 31.8925 36.1075 32.0125 36.2275C32.1326 36.3476 32.2 36.5103 32.2 36.6801C32.2 36.8498 32.1326 37.0126 32.0125 37.1326C31.8925 37.2526 31.7297 37.3201 31.56 37.3201ZM31.56 34.7601H27.72C27.5503 34.7601 27.3875 34.6926 27.2674 34.5726C27.1474 34.4526 27.08 34.2898 27.08 34.1201C27.08 33.9503 27.1474 33.7876 27.2674 33.6675C27.3875 33.5475 27.5503 33.4801 27.72 33.4801H31.56C31.7297 33.4801 31.8925 33.5475 32.0125 33.6675C32.1326 33.7876 32.2 33.9503 32.2 34.1201C32.2 34.2898 32.1326 34.4526 32.0125 34.5726C31.8925 34.6926 31.7297 34.7601 31.56 34.7601ZM31.56 32.2001H27.72C27.5503 32.2001 27.3875 32.1326 27.2674 32.0126C27.1474 31.8926 27.08 31.7298 27.08 31.5601C27.08 31.3903 27.1474 31.2276 27.2674 31.1075C27.3875 30.9875 27.5503 30.9201 27.72 30.9201H31.56C31.7297 30.9201 31.8925 30.9875 32.0125 31.1075C32.1326 31.2276 32.2 31.3903 32.2 31.5601C32.2 31.7298 32.1326 31.8926 32.0125 32.0126C31.8925 32.1326 31.7297 32.2001 31.56 32.2001ZM31.56 29.6401H27.72C27.5503 29.6401 27.3875 29.5726 27.2674 29.4526C27.1474 29.3326 27.08 29.1698 27.08 29.0001C27.08 28.8303 27.1474 28.6676 27.2674 28.5475C27.3875 28.4275 27.5503 28.3601 27.72 28.3601H31.56C31.7297 28.3601 31.8925 28.4275 32.0125 28.5475C32.1326 28.6676 32.2 28.8303 32.2 29.0001C32.2 29.1698 32.1326 29.3326 32.0125 29.4526C31.8925 29.5726 31.7297 29.6401 31.56 29.6401ZM24.52 33.4801H19.7584V29.6401H24.52V33.4801ZM41.16 20.0785L41.0576 35.6689C41.084 36.0675 41.0283 36.4674 40.894 36.8436C40.7596 37.2198 40.5494 37.5645 40.2764 37.8562C40.0034 38.1479 39.6734 38.3805 39.3069 38.5394C38.9404 38.6984 38.5451 38.7804 38.1456 38.7804C37.7461 38.7804 37.3508 38.6984 36.9843 38.5394C36.6177 38.3805 36.2878 38.1479 36.0148 37.8562C35.7418 37.5645 35.5316 37.2198 35.3972 36.8436C35.2628 36.4674 35.2071 36.0675 35.2336 35.6689L35.3232 25.1345C35.3232 24.9647 35.2558 24.802 35.1357 24.6819C35.0157 24.5619 34.8529 24.4945 34.6832 24.4945H23.9568V20.0785C23.9568 19.9087 24.0242 19.746 24.1442 19.6259C24.2643 19.5059 24.4271 19.4385 24.5968 19.4385H40.52C40.6897 19.4385 40.8525 19.5059 40.9725 19.6259C41.0926 19.746 41.16 19.9087 41.16 20.0785Z" fill="white"/>
</svg>
