<svg width="20" height="21" viewBox="0 0 20 21" fill="none" xmlns="http://www.w3.org/2000/svg">
<path d="M12.2517 18.3705L12.2608 18.3768C13.0478 18.878 13.9823 19.0956 14.9097 18.9937C15.8372 18.8919 16.7022 18.4766 17.3617 17.8166L17.9346 17.2437C18.0616 17.1168 18.1623 16.9662 18.231 16.8003C18.2998 16.6345 18.3351 16.4568 18.3351 16.2773C18.3351 16.0978 18.2998 15.92 18.231 15.7542C18.1623 15.5884 18.0616 15.4377 17.9346 15.3108L15.5181 12.8961C15.3912 12.7691 15.2405 12.6684 15.0747 12.5997C14.9089 12.5309 14.7311 12.4956 14.5516 12.4956C14.3721 12.4956 14.1944 12.5309 14.0286 12.5997C13.8627 12.6684 13.7121 12.7691 13.5852 12.8961C13.329 13.1522 12.9815 13.2961 12.6192 13.2961C12.2569 13.2961 11.9094 13.1522 11.6532 12.8961L7.78926 9.03121C7.53311 8.77499 7.38922 8.42752 7.38922 8.06522C7.38922 7.70292 7.53311 7.35546 7.78926 7.09923C7.91623 6.97235 8.01695 6.82169 8.08566 6.65586C8.15438 6.49003 8.18975 6.31229 8.18975 6.13279C8.18975 5.95329 8.15438 5.77555 8.08566 5.60972C8.01695 5.44389 7.91623 5.29323 7.78926 5.16635L5.3736 2.7516C5.11738 2.49546 4.76991 2.35156 4.40762 2.35156C4.04532 2.35156 3.69785 2.49546 3.44163 2.7516L2.86777 3.32455C2.20792 3.98419 1.79286 4.8492 1.69117 5.77667C1.58948 6.70413 1.80725 7.63853 2.30849 8.42547L2.31396 8.43458C4.96114 12.3512 8.33458 15.724 12.2517 18.3705V18.3705Z" stroke="black" stroke-width="1.4" stroke-linecap="round" stroke-linejoin="round"/>
</svg>
