<svg width="19" height="16" viewBox="0 0 19 16" fill="none" xmlns="http://www.w3.org/2000/svg">
<g id="Social Media Icon Square/Twitter">
<path id="Twitter" d="M12.8767 1.08137V1.07812H13.7207L14.029 1.13972C14.2346 1.1797 14.4213 1.2321 14.589 1.29694C14.7567 1.36177 14.9191 1.43742 15.0759 1.52386C15.2328 1.6103 15.3751 1.69837 15.5028 1.78805C15.6294 1.87666 15.743 1.97067 15.8437 2.07008C15.9432 2.17057 16.0985 2.19651 16.3095 2.14788C16.5205 2.09925 16.7477 2.03171 16.9912 1.94527C17.2346 1.85884 17.4754 1.76158 17.7135 1.65352C17.9515 1.54546 18.0965 1.47685 18.1485 1.44768C18.1993 1.41743 18.2264 1.40122 18.2296 1.39905L18.2328 1.39419L18.2491 1.38608L18.2653 1.37798L18.2815 1.36988L18.2978 1.36177L18.301 1.35691L18.3059 1.35367L18.3108 1.35043L18.314 1.34556L18.3302 1.3407L18.3465 1.33746L18.3432 1.36177L18.3383 1.38608L18.3302 1.4104L18.3221 1.43471L18.314 1.45092L18.3059 1.46713L18.2978 1.49144C18.2924 1.50765 18.287 1.52925 18.2815 1.55627C18.2761 1.58329 18.2247 1.69134 18.1273 1.88044C18.03 2.06954 17.9082 2.26134 17.7621 2.45584C17.6161 2.65034 17.4851 2.79729 17.3694 2.89671C17.2525 2.9972 17.1751 3.06743 17.1373 3.10742C17.0994 3.14847 17.0534 3.18629 16.9993 3.22088L16.9181 3.27436L16.9019 3.28247L16.8857 3.29057L16.8824 3.29544L16.8776 3.29868L16.8727 3.30192L16.8694 3.30678L16.8532 3.31489L16.837 3.32299L16.8338 3.32785L16.8289 3.33109L16.824 3.33434L16.8208 3.3392L16.8175 3.34406L16.8126 3.3473L16.8078 3.35054L16.8045 3.35541H16.8857L17.3401 3.25816C17.6431 3.19332 17.9326 3.11499 18.2085 3.02313L18.6467 2.87726L18.6954 2.86105L18.7198 2.85295L18.736 2.84484L18.7522 2.83674L18.7685 2.82863L18.7847 2.82053L18.8171 2.81567L18.8496 2.81242V2.84484L18.8415 2.84808L18.8334 2.85295L18.8301 2.85781L18.8253 2.86105L18.8204 2.86429L18.8171 2.86915L18.8139 2.87402L18.809 2.87726L18.8042 2.8805L18.8009 2.88536L18.7977 2.89023L18.7928 2.89347L18.7847 2.90968L18.7766 2.92588L18.7717 2.92913C18.7695 2.93237 18.7008 3.0242 18.5656 3.20467C18.4303 3.3862 18.3573 3.47804 18.3465 3.48021C18.3356 3.48345 18.3205 3.49966 18.301 3.52884C18.2826 3.55908 18.1679 3.67957 17.9569 3.89028C17.7459 4.10099 17.5393 4.28846 17.3369 4.45272C17.1335 4.61804 17.0307 4.82118 17.0285 5.06215C17.0253 5.30204 17.0128 5.57327 16.9912 5.87581C16.9695 6.17838 16.929 6.50524 16.8694 6.85642C16.8099 7.20761 16.718 7.60472 16.5935 8.04774C16.4691 8.49077 16.3176 8.92299 16.1391 9.34441C15.9605 9.76583 15.7739 10.144 15.5791 10.479C15.3843 10.814 15.2058 11.0976 15.0435 11.3299C14.8812 11.5623 14.7162 11.7811 14.5484 11.9864C14.3807 12.1917 14.1687 12.4229 13.9122 12.6801C13.6547 12.9362 13.514 13.0767 13.4902 13.1015C13.4653 13.1253 13.3593 13.2139 13.1721 13.3673C12.986 13.5219 12.7858 13.6764 12.5715 13.8309C12.3584 13.9843 12.1625 14.1124 11.984 14.215C11.8054 14.3177 11.5901 14.4349 11.338 14.5668C11.087 14.6997 10.8153 14.8229 10.5232 14.9363C10.231 15.0498 9.92265 15.1551 9.59803 15.2524C9.27341 15.3496 8.95962 15.4253 8.65664 15.4793C8.35368 15.5333 8.01012 15.5793 7.62598 15.6171L7.04979 15.6738V15.6819H5.99479V15.6738L5.85682 15.6657C5.76486 15.6603 5.68911 15.6549 5.62959 15.6495C5.57009 15.6441 5.34555 15.6144 4.95601 15.5603C4.56647 15.5063 4.2608 15.4523 4.03897 15.3983C3.81716 15.3442 3.48712 15.2416 3.04889 15.0903C2.61066 14.939 2.23572 14.7861 1.92409 14.6316C1.61355 14.4782 1.41878 14.3809 1.33978 14.3398C1.26187 14.2999 1.17423 14.2502 1.07684 14.1907L0.930764 14.1016L0.927534 14.0967L0.922648 14.0935L0.917779 14.0902L0.914533 14.0854L0.898302 14.0773L0.882071 14.0692L0.878841 14.0643L0.873956 14.0611L0.869086 14.0578L0.86584 14.053L0.86261 14.0481L0.857725 14.0449H0.849609V14.0124L0.86584 14.0157L0.882071 14.0205L0.95511 14.0286C1.0038 14.034 1.13636 14.0421 1.35277 14.053C1.56919 14.0638 1.79911 14.0638 2.04258 14.053C2.28604 14.0421 2.53492 14.0178 2.78919 13.98C3.04348 13.9422 3.34375 13.8774 3.69001 13.7855C4.03627 13.6937 4.3544 13.5845 4.6444 13.4581C4.9333 13.3306 5.13888 13.2355 5.26117 13.1728C5.38235 13.1112 5.56738 12.9967 5.81625 12.8292L6.18956 12.578L6.1928 12.5731L6.19767 12.5699L6.20256 12.5666L6.20579 12.5618L6.20903 12.5569L6.2139 12.5537L6.21879 12.5504L6.22202 12.5456L6.23825 12.5407L6.25448 12.5375L6.25772 12.5213L6.26259 12.5051L6.26748 12.5018L6.27071 12.4969L6.14086 12.4888C6.0543 12.4834 5.97044 12.478 5.88928 12.4726C5.80813 12.4672 5.68099 12.4429 5.50786 12.3997C5.33474 12.3565 5.14809 12.2916 4.9479 12.2052C4.74772 12.1188 4.55295 12.0161 4.36359 11.8972C4.17424 11.7784 4.03735 11.6795 3.95295 11.6006C3.86963 11.5228 3.76142 11.4126 3.62833 11.27C3.49632 11.1263 3.38162 10.9788 3.28424 10.8275C3.18685 10.6762 3.0938 10.5017 3.00508 10.304L2.87035 10.009L2.86223 9.98465L2.85412 9.96033L2.84925 9.94412L2.846 9.92792L2.87035 9.93116L2.8947 9.93602L3.07323 9.96033C3.19227 9.97654 3.37893 9.98194 3.6332 9.97654C3.88749 9.97114 4.06332 9.96033 4.1607 9.94412C4.25809 9.92792 4.3176 9.9171 4.33924 9.91171L4.3717 9.9036L4.41228 9.8955L4.45286 9.88739L4.4561 9.88253L4.46097 9.87929L4.46586 9.87605L4.46909 9.87119L4.43662 9.86308L4.40416 9.85498L4.3717 9.84687L4.33924 9.83877L4.30678 9.83067C4.28514 9.82527 4.24728 9.81446 4.19316 9.79825C4.13906 9.78204 3.99299 9.7226 3.75493 9.61996C3.51689 9.51731 3.32752 9.41735 3.18685 9.3201C3.04583 9.22257 2.91137 9.1159 2.78433 9.00079C2.65772 8.88409 2.51869 8.73389 2.36719 8.5502C2.21571 8.36651 2.08046 8.1531 1.96142 7.90997C1.8424 7.66684 1.75313 7.43453 1.69361 7.21301C1.63433 6.99279 1.59522 6.76765 1.57677 6.54036L1.54754 6.19998L1.56377 6.20322L1.58 6.20809L1.59623 6.21619L1.61246 6.22429L1.62869 6.2324L1.64492 6.2405L1.8965 6.35396C2.06423 6.42961 2.27252 6.49444 2.52139 6.54846C2.77027 6.60249 2.91904 6.63221 2.96773 6.63761L3.04077 6.64571H3.18685L3.18362 6.64085L3.17873 6.63761L3.17387 6.63437L3.17062 6.6295L3.16739 6.62464L3.1625 6.6214L3.15763 6.61816L3.15439 6.6133L3.13816 6.60519L3.12193 6.59709L3.1187 6.59223L3.11381 6.58898L3.10894 6.58574L3.1057 6.58088L3.08947 6.57278L3.07323 6.56467L3.07 6.55981C3.06676 6.55764 3.02022 6.52306 2.9304 6.45607C2.84167 6.388 2.74862 6.29994 2.65123 6.19188C2.55385 6.08382 2.45646 5.97036 2.35908 5.8515C2.26151 5.73237 2.17461 5.60492 2.09938 5.4706C2.02365 5.33554 1.94357 5.16371 1.85917 4.95518C1.77585 4.74771 1.71255 4.53862 1.66927 4.32791C1.626 4.1172 1.60165 3.9092 1.59623 3.70389C1.59082 3.49858 1.59623 3.32299 1.61246 3.17711C1.62869 3.03124 1.66115 2.86645 1.70984 2.68276C1.75854 2.49907 1.82888 2.30457 1.92084 2.09925L2.05881 1.79129L2.06692 1.76698L2.07504 1.74267L2.07992 1.73943L2.08315 1.73457L2.0864 1.7297L2.09127 1.72646L2.09615 1.7297L2.09938 1.73457L2.10263 1.73943L2.1075 1.74267L2.11238 1.74591L2.11561 1.75077L2.11886 1.75564L2.12373 1.75888L2.13185 1.77509L2.13996 1.79129L2.14485 1.79454L2.14808 1.7994L2.36719 2.04253C2.51327 2.20461 2.6864 2.38561 2.88658 2.58551C3.08677 2.78541 3.19768 2.88914 3.21931 2.89671C3.24096 2.90535 3.268 2.9302 3.30047 2.97127C3.33293 3.01125 3.44114 3.10688 3.62508 3.25816C3.80904 3.40943 4.0498 3.58503 4.34736 3.78493C4.64493 3.98483 4.97495 4.18204 5.33744 4.37654C5.69994 4.57104 6.08948 4.74662 6.50606 4.90331C6.92265 5.06 7.21481 5.16264 7.38252 5.21127C7.55025 5.25989 7.83699 5.32202 8.24276 5.39767C8.64853 5.47331 8.95422 5.52194 9.1598 5.54354C9.36539 5.56515 9.50607 5.57758 9.5818 5.58082L9.69542 5.58406L9.69219 5.55975L9.6873 5.53544L9.65484 5.33283C9.6332 5.19777 9.62238 5.00866 9.62238 4.76554C9.62238 4.52241 9.64132 4.2982 9.67919 4.09289C9.71707 3.88758 9.77388 3.67957 9.84961 3.46887C9.92536 3.25816 9.99949 3.08904 10.072 2.96154C10.1456 2.83512 10.2419 2.69086 10.3609 2.52878C10.4799 2.36669 10.6341 2.19921 10.8235 2.02632C11.0128 1.85342 11.2292 1.69944 11.4727 1.56438C11.7162 1.42931 11.9407 1.32665 12.1463 1.25642C12.3519 1.18619 12.525 1.14025 12.6657 1.11865C12.8063 1.09704 12.8767 1.08461 12.8767 1.08137Z" fill="#E0334C"/>
</g>
</svg>
