<svg width="21" height="16" viewBox="0 0 21 16" fill="none" xmlns="http://www.w3.org/2000/svg">
<g id="Social Media Icon Square/YouTube">
<g id="Group 73">
<path id="YouTube" d="M11.2884 15.3601L7.22617 15.2841C5.91092 15.2577 4.5924 15.3105 3.30294 15.0364C1.34138 14.6269 1.20241 12.619 1.057 10.9347C0.856641 8.5669 0.934207 6.15609 1.31232 3.80801C1.52577 2.4905 2.3658 1.70432 3.66488 1.61877C8.05023 1.3083 12.4647 1.34509 16.8404 1.48994C17.3025 1.50322 17.7678 1.5758 18.2235 1.65841C20.4728 2.06133 20.5276 4.33672 20.6734 6.25218C20.8189 8.1874 20.7575 10.1326 20.4795 12.0546C20.2566 13.646 19.8299 14.9805 18.0296 15.1094C15.7738 15.2778 13.5698 15.4135 11.3077 15.3703C11.3078 15.3601 11.2948 15.3601 11.2884 15.3601ZM8.90019 11.3311C10.6001 10.3337 12.2676 9.35287 13.9577 8.36215C12.2547 7.36474 10.5904 6.38395 8.90019 5.39323V11.3311Z" fill="#E0334C"/>
</g>
</g>
</svg>
